<?xml version="1.0" standalone="no"?><!DOCTYPE svg PUBLIC "-//W3C//DTD SVG 1.1//EN" "http://www.w3.org/Graphics/SVG/1.1/DTD/svg11.dtd"><svg t="1676362705744" class="icon" viewBox="0 0 1024 1024" version="1.1" xmlns="http://www.w3.org/2000/svg" p-id="2758" xmlns:xlink="http://www.w3.org/1999/xlink" width="200" height="200"><path d="M988.881981 241.790683l-3.327679 3.378874c-40.136927 49.505623-83.550337 98.85766-127.014943 148.260893-103.567606 108.891892-140.325659 121.997827-160.342927 121.997827h-6.655358a172.322571 172.322571 0 0 1-76.894979-39.522586l-36.758053 46.075554 330.720085 329.644989c14.897762 17.252735 22.167461 39.829756 20.017269 62.560363 0.358365 21.809095-9.522281 42.4919-26.775017 56.05859a91.229596 91.229596 0 0 1-56.775321 19.761293 78.533222 78.533222 0 0 1-56.775321-23.037776c-9.983037-13.25952-193.773301-220.906683-300.668585-342.80212l-320.788244 342.750924c-15.921664 15.716883-37.730759 24.061678-60.103 23.088972a85.188579 85.188579 0 0 1-63.481874-19.761293 68.49899 68.49899 0 0 1-26.723822-52.730911 93.072618 93.072618 0 0 1 19.966074-72.44101 54614.889663 54614.889663 0 0 1 340.805512-323.040826l-23.344947-26.263066c-16.638394 3.327679-133.619106-6.552968-167.100675-36.297297C163.515229 436.280715 6.551176 208.87226 6.551176 106.635726 6.551176 80.219075 16.534212 37.36881 59.947623 37.36881c26.826211 0 56.826516 19.761293 96.912248 59.386269 23.344947 23.037777 273.995959 276.811688 330.771281 332.870278l33.481569-36.348492a152.663668 152.663668 0 0 1-43.464606-59.386269 101.007853 101.007853 0 0 1 13.310715-75.768689l3.327679-9.880646a1586.022949 1586.022949 0 0 1 233.961423-237.289102c12.4404-9.215111 28.157283-12.798765 43.413411-9.880646a40.700072 40.700072 0 0 1 30.000305 26.41665c6.655358 12.389204 6.655358 27.235772 0 39.522586-10.034232 13.208325-170.479549 181.230511-190.445622 200.991805-6.655358 6.552968-16.689589 26.416651-10.034232 32.969618h3.327679c9.778256-2.406168 18.942172-6.911333 26.826211-13.208325 9.983037-9.880647 173.756033-174.728739 187.066748-187.783479a42.90146 42.90146 0 0 1 30.15389-13.208326c18.327831 0.30717 34.40308 12.235619 40.085732 29.590745a34.09591 34.09591 0 0 1-3.327679 39.522586c-13.464301 16.689589-177.134906 197.920101-187.117943 207.800747a15.358518 15.358518 0 0 0-4.863531 21.04117c0.511951 0.716731 0.921511 1.433462 1.535852 2.047802l3.327679 3.327679a53.754813 53.754813 0 0 0 23.344947-13.208325c6.655358-9.880647 173.756033-174.728739 190.445622-191.111158a38.191515 38.191515 0 0 1 26.775016-9.880647c22.628216 0 43.31102 12.696375 53.447643 32.969619 6.655358 13.208325 6.655358 26.416651-3.327679 32.918423z" p-id="2759" fill="#515151"></path></svg>